# xmcd
#
# Track frame offsets: 
#        150
#        15991
#        33065
#        50310
#        66970
#        79034
#        97184
#        115437
#        128401
#        142920
#        151698
#        174960
#        188032
#        206296
#        222156
#        241456
#        256888
#        272153
#        288104
#        312679
#
# Disc length: 4416 seconds
#
# Revision: 0
# Processed by: cddbd v1.5.2PL0 Copyright (c) Steve Scherf et al.
# Submitted via: ExactAudioCopy v0.99pb4
#
DISCID=0a113e14
DTITLE=Валерий Ярушин и группа "Ариэль" - На острове буяне
DYEAR=2001
DGENRE=Country
TTITLE0=В краю магнолий (муз.А.Морозов,сл.Ю.Марцинкевич)
TTITLE1=Уходишь ты (муз.А.Зацепин,сл.Л.Дербинёв)
TTITLE2=На острове Буяне  (муз.А.Морозов,сл.Л.Дербенёв)
TTITLE3=Заповедные места (муз.Ю.Лоза,сл.А.Жигарев)
TTITLE4=Порушка-Параня (муз.и сл.народные)
TTITLE5=Обращение к России (муз.и сл.В.Ярушин)
TTITLE6=Деревянный мостик (муз.В.Ярушин,сл.В.Круг)
TTITLE7=Пойдуль я-да (муз.и сл.народные)
TTITLE8=Зимы и вёсны (муз.и сл.В.Ярушин)
TTITLE9=Втроём с дождём (муз.В.Ярушин,сл.О.Смирнов)
TTITLE10=Однозвучно звенит колокольчик (муз.и сл.народные)
TTITLE11=Маленькая история (муз.и сл.В.Ярушин)
TTITLE12=Ой, то не вечер (муз.и сл.народные)
TTITLE13=Рио (муз.В.Ярушин,сл.В.Батенков)
TTITLE14=Первая последняя любовь (муз.В.Ярушин,сл.С.Семянников)
TTITLE15=Казачья (муз.В.Ярушин,сл.А.Костерев)
TTITLE16=Уезжают друзья (муз.В.Ярушин,сл.А.Костерев)
TTITLE17=Золотое кольцо (муз.В.Ярушин,сл.В.Батенков)
TTITLE18=Чужая женщина (муз.В.Ярушин,сл.С.Семянников)
TTITLE19=Грешник (муз.В.Ярушин,сл.В.Андрианов)
EXTD=
EXTT0=
EXTT1=
EXTT2=
EXTT3=
EXTT4=
EXTT5=
EXTT6=
EXTT7=
EXTT8=
EXTT9=
EXTT10=
EXTT11=
EXTT12=
EXTT13=
EXTT14=
EXTT15=
EXTT16=
EXTT17=
EXTT18=
EXTT19=
PLAYORDER=
